<?xml version="1.0" encoding="utf-8"?>
<!-- Generator: Adobe Illustrator 24.0.1, SVG Export Plug-In . SVG Version: 6.00 Build 0)  -->
<svg version="1.1" id="Layer_1" xmlns="http://www.w3.org/2000/svg" xmlns:xlink="http://www.w3.org/1999/xlink" x="0px" y="0px"
	 viewBox="0 0 200 200" style="enable-background:new 0 0 200 200;" xml:space="preserve">
<style type="text/css">
	.st0{fill:none;}
	.st1{fill:#1B1B1E;}
</style>
<g>
	<rect class="st0" width="200" height="200"/>
	<g>
		<path class="st1" d="M22.2,171.8h25.7c8.5,0,14.2-2.4,17.6-7.2c3.6-5.3,5.5-11.8,5.5-19.5c0-6-1-11.6-2.9-16.7
			c-1.9-5-4.6-8.9-8-11.8c-3.3-2.8-7-4.2-11.5-4.2H22.2V171.8z"/>
		<path class="st1" d="M0,0L0,0h46.5c9.4,0,17.3,2.6,23.5,7.8c6,5,10.6,11.8,13.5,20.2c2.8,8.1,4.3,17.1,4.3,26.9c0,8.7-1,16-3,21.7
			c-2,5.9-4.7,10.6-8.1,14.2c-1.7,1.8-3.4,3.3-5.3,4.6c2.3,1.2,4.6,2.9,6.8,5.1c4.2,4.1,7.7,10,10.4,17.5c2.7,7.4,4.1,16.5,4.1,27.1
			c0,10-1.5,19.2-4.4,27.3c-3,8.4-7.9,15.1-14.5,20.1c-6.6,5-15.3,7.5-25.7,7.5H0l0,0h200V0H0z M199.4,200h-26.2l-40.5-85.2
			l-11.3,20V200H99.2V0h22.2v87.9L172,0h28l-53.7,90.8L199.4,200z"/>
		<path class="st1" d="M63.3,71.1c1.9-4.5,2.9-10,2.9-16.2c0-7.7-1.7-14.2-5-19.5c-3.1-4.9-7.9-7.2-14.7-7.2H22.2v56.4H46
			c3.7,0,6.9-1.1,9.8-3.4C59,78.9,61.5,75.5,63.3,71.1z"/>
	</g>
</g>
</svg>
